# AST/ASF file generated using VICON BodyLanguage
# -----------------------------------------------
:version 1.10
:name VICON
:units
  mass 1.0
  length 0.45
  angle deg
:documentation
   .ast/.asf automatically generated from VICON data using
   VICON BodyBuilder and BodyLanguage model FoxedUp or BRILLIANT.MOD
:root
   order TX TY TZ RX RY RZ
   axis XYZ
   position 0 0 0  
   orientation 0 0 0 
:bonedata
  begin
     id 1 
     name lhipjoint
     direction 0.537252 -0.787203 0.302774 
     length 2.29576 
     axis 0 0 0  XYZ
  end
  begin
     id 2 
     name lfemur
     direction 0.34202 -0.939693 0  
     length 7.31114  
     axis 0 0 20  XYZ
    dof rx ry rz
    limits (-160.0 20.0)
           (-70.0 70.0)
           (-60.0 70.0)
  end
  begin
     id 3 
     name ltibia
     direction 0.34202 -0.939693 0   
     length 8.36008   
     axis 0 0 20   XYZ
    dof rx
    limits (-10.0 170.0)
  end
  begin
     id 4 
     name lfoot
     direction 0.0969116 -0.266263 0.959016   
     length 2.16704   
     axis -90 7.62852e-016 20   XYZ
    dof rx rz
    limits (-45.0 90.0)
           (-70.0 20.0)
  end
  begin
     id 5 
     name ltoes
     direction 1.53563e-011 -4.21779e-011 1   
     length 1.08338   
     axis -90 7.62852e-016 20   XYZ
    dof rx
    limits (-90.0 20.0)
  end
  begin
     id 6 
     name rhipjoint
     direction -0.588228 -0.754791 0.290308   
     length 2.39434  
     axis 0 0 0  XYZ 
  end
  begin
     id 7 
     name rfemur
     direction -0.34202 -0.939693 0   
     length 7.45207   
     axis 0 0 -20   XYZ
    dof rx ry rz
    limits (-160.0 20.0)
           (-70.0 70.0)
           (-70.0 60.0)
  end
  begin
     id 8 
     name rtibia
     direction -0.34202 -0.939693 0   
     length 8.03565   
     axis 0 0 -20   XYZ
    dof rx
    limits (-10.0 170.0)
 end
 begin
     id 9 
     name rfoot
     direction -0.107009 -0.294004 0.949795   
     length 2.11509  
     axis -90 -7.62852e-016 -20   XYZ
    dof rx rz
    limits (-45.0 90.0)
           (-20.0 70.0)
  end
  begin
     id 10 
     name rtoes
     direction -1.53533e-011 -4.22004e-011 1   
     length 1.05493   
     axis -90 -7.62852e-016 -20   XYZ
    dof rx
    limits (-90.0 20.0)
  end
  begin
     id 11 
     name lowerback
     direction -0.0115208 0.997969 -0.0626515   
     length 2.03153   
     axis 0 0 0   XYZ
    dof rx ry rz
    limits (-20.0 45.0)
           (-30.0 30.0)
           (-30.0 30.0)
  end
  begin
     id 12 
     name upperback
     direction -0.00423475 0.999974 -0.00583614   
     length 2.03619   
     axis 0 0 0   XYZ
    dof rx ry rz
    limits (-20.0 45.0)
           (-30.0 30.0)
           (-30.0 30.0)
  end
  begin
     id 13 
     name thorax
     direction 0.00289429 0.999728 0.0231573   
     length 2.03921   
     axis 0 0 0   XYZ
    dof rx ry rz
    limits (-20.0 45.0)
           (-30.0 30.0)
           (-30.0 30.0)
  end
  begin
     id 14 
     name lowerneck
     direction 0.0188995 0.987777 0.154721   
     length 1.78836   
     axis 0 0 0   XYZ
    dof rx ry rz
    limits (-20.0 45.0)
           (-30.0 30.0)
           (-30.0 30.0)
  end
  begin
     id 15 
     name upperneck
     direction -0.00612612 0.992995 -0.118   
     length 1.81789   
     axis 0 0 0   XYZ
    dof rx ry rz
    limits (-20.0 45.0)
           (-30.0 30.0)
           (-30.0 30.0)
  end
  begin
     id 16
     name head
     direction -0.00420226 0.998397 -0.0564482  
     length 1.82234  
     axis 0 0 0   XYZ
    dof rx ry rz
    limits (-20.0 45.0)
           (-30.0 30.0)
           (-30.0 30.0)
  end
  begin
     id 17 
     name lclavicle
     direction 0.916488 0.396539 0.0529676  
     length 3.51732  
     axis 0 0 0   XYZ
    dof ry rz
    limits (-20.0 10.0)
           (0.0 20.0)
  end
  begin
     id 18 
     name lhumerus
     direction 1 -4.4896e-011 8.36962e-028   
     length 5.45077   
     axis 180 -30 -90   XYZ
    dof rx ry rz
    limits (-60.0 90.0)
           (-90.0 90.0)
           (-90.0 90.0)
  end
  begin
     id 19
     name lradius
     direction 1 -4.48962e-011 3.01407e-027   
     length 3.05488   
     axis 180 -30 -90   XYZ
    dof rx
    limits (-10.0 170.0)
  end
  begin
     id 20
     name lwrist
     direction 1 -4.49002e-011 4.72961e-027   
     length 1.52744   
     axis -2.72261e-015 90 90   XYZ
    dof ry
    limits (-180.0 0.0)
 end
  begin
     id 21 
     name lhand
     direction 1 -4.4899e-011 9.45681e-027   
     length 0.638818   
     axis -6.0311e-015 90 90   XYZ
    dof rx rz
    limits (-90.0 90.0)
           (-45.0 45.0)
  end
  begin
     id 22 
     name lfingers
     direction 1 -4.48871e-011 1.88632e-026   
     length 0.515032   
     axis -1.20625e-014 90 90   XYZ
    dof rx
    limits (0.0 90.0)
  end
  begin
     id 23
     name lthumb
     direction 0.707107 -6.34964e-011 0.707107   
     length 0.739485   
     axis -90 45 6.32835e-014   XYZ
    dof rx rz
    limits (-45.0 45.0)
           (-45.0 45.0)
  end
  begin
     id 24 
     name rclavicle
     direction -0.949427 0.303202 0.0815894   
     length 3.76167  
     axis 0 0 0   XYZ 
    dof ry rz
    limits (-10.0 20.0)
           (-20.0 0.0)
  end
  begin
     id 25 
     name rhumerus
     direction -1 -4.48971e-011 -6.43969e-018  
     length 4.88702   
     axis 180 30 90   XYZ
    dof rx ry rz
    limits (-90.0 60.0)
           (-90.0 90.0)
           (-90.0 90.0)
  end
  begin
     id 26 
     name rradius
     direction -1 -4.48987e-011 5.46662e-027   
     length 3.22603   
     axis 180 30 90   XYZ
    dof rx
    limits (-10.0 170.0)
  end
  begin
     id 27 
     name rwrist
     direction -1 -4.48956e-011 4.72476e-027   
     length 1.61302   
     axis -2.72261e-015 -90 -90   XYZ
    dof ry
    limits (-180.0 0.0)
  end
  begin
     id 28
     name rhand
     direction -1 -4.4889e-011 9.43571e-027   
     length 0.716293   
     axis -6.0311e-015 -90 -90   XYZ
    dof rx rz
    limits (-90.0 90.0)
           (-45.0 45.0)
  end
  begin
     id 29
     name rfingers
     direction -1 -4.48887e-011 1.88701e-026   
     length 0.577494   
     axis -1.20625e-014 -90 -90   XYZ
    dof rx
    limits (0.0 90.0)
  end
  begin
     id 30
     name rthumb
     direction -0.707107 -6.34825e-011 0.707107   
     length 0.829169   
     axis -90 -45 -6.32835e-014   XYZ
    dof rx rz
    limits (-45.0 45.0)
           (-45.0 45.0)
  end
:hierarchy
  begin
    root lhipjoint rhipjoint lowerback
    lhipjoint lfemur
    lfemur ltibia
    ltibia lfoot
    lfoot ltoes
    rhipjoint rfemur
    rfemur rtibia
    rtibia rfoot
    rfoot rtoes
    lowerback upperback
    upperback thorax
    thorax lowerneck lclavicle rclavicle
    lowerneck upperneck
    upperneck head
    lclavicle lhumerus
    lhumerus lradius
    lradius lwrist
    lwrist lhand lthumb
    lhand lfingers
    rclavicle rhumerus
    rhumerus rradius
    rradius rwrist
    rwrist rhand rthumb
    rhand rfingers
  end

#!OML:ASF F:\VICON\USERDATA\INSTALL\rory3\rory3.ASF
:FULLY-SPECIFIED
:DEGREES
326
root -1.12027 17.9354 0.430723 170.855 86.0393 128.637
lowerback 18.685 -1.27768 -0.753179
upperback 6.48644 -1.45974 -1.55855
thorax -3.50714 -0.540489 -0.924193
lowerneck -18.6417 -0.14445 3.26393
upperneck 3.1067 -0.692021 -1.58827
head 3.86217 -0.344349 -1.07005
rclavicle -1.61016e-014 -2.88238e-014
rhumerus 48.4083 -17.9566 -90.9061
rradius 34.5397
rwrist -198.531
rhand -33.9671 -8.08655
rfingers 7.12502
rthumb -7.14777 -37.9458
lclavicle -1.61016e-014 -2.88238e-014
lhumerus 40.2127 13.9864 73.2226
lradius 38.0498
lwrist 228.549
lhand -36.9346 -35.2762
lfingers 7.12502
lthumb -10.0115 -5.53435
rfemur -62.7941 -9.94131 19.1646
rtibia 25.3818
rfoot -4.41995 5.20729
rtoes -4.22515
lfemur -66.8026 11.6762 -33.1917
ltibia 29.1164
lfoot -4.45104 -8.10892
ltoes -17.3547
327
root -1.08707 17.9695 0.42154 172.199 85.9616 130.913
lowerback 18.7488 -1.32687 -0.539007
upperback 6.38099 -1.49557 -1.56402
thorax -3.65953 -0.558863 -1.04215
lowerneck -18.5077 -0.15663 3.26772
upperneck 3.23058 -0.714033 -1.53088
head 3.88015 -0.352414 -1.05464
rclavicle -7.95139e-016 -8.84592e-015
rhumerus 47.3772 -18.0528 -90.6898
rradius 34.8078
rwrist -198.634
rhand -34.0109 -8.15484
rfingers 7.12502
rthumb -7.19007 -38.0127
lclavicle -7.95139e-016 -8.84592e-015
lhumerus 39.3722 13.7086 72.8831
lradius 38.1574
lwrist 228.9
lhand -36.8087 -35.8348
lfingers 7.12502
lthumb -9.89009 -6.08706
rfemur -61.4528 -10.0305 19.1077
rtibia 25.1542
rfoot -4.60955 5.20955
rtoes -4.69664
lfemur -65.4523 11.6428 -32.5944
ltibia 28.9523
lfoot -4.67964 -7.86521
ltoes -17.4288
328
root -1.06414 17.9809 0.411683 172.856 85.9818 131.784
lowerback 17.9242 -1.32429 -0.414899
upperback 6.1599 -1.49533 -1.56736
thorax -3.46806 -0.571029 -1.12459
lowerneck -18.5238 -0.142292 3.28185
upperneck 3.43804 -0.702887 -1.52706
head 3.94742 -0.346801 -1.05568
rclavicle -1.72943e-014 5.36719e-015
rhumerus 46.2977 -18.0385 -90.3644
rradius 35.1756
rwrist -198.791
rhand -34.067 -8.17636
rfingers 7.12502
rthumb -7.24422 -38.0324
lclavicle -1.72943e-014 5.36719e-015
lhumerus 38.6798 13.4665 72.689
lradius 38.1484
lwrist 229.225
lhand -36.79 -36.1656
lfingers 7.12502
lthumb -9.87207 -6.41702
rfemur -60.9919 -10.0448 19.1173
rtibia 24.9061
rfoot -4.59962 5.19306
rtoes -4.92579
lfemur -64.9589 11.4768 -32.218
ltibia 28.8012
lfoot -4.80777 -7.51619
ltoes -17.7171
329
root -1.03722 17.9995 0.409714 172.498 85.9935 131.938
lowerback 17.4805 -1.28012 -0.440324
upperback 6.00188 -1.45799 -1.56046
thorax -3.40169 -0.560747 -1.11472
lowerneck -18.565 -0.178833 3.26365
upperneck 3.60818 -0.752803 -1.51445
head 4.0056 -0.371277 -1.05397
rclavicle -1.72943e-014 -1.05356e-014
rhumerus 45.3676 -18.0048 -89.8462
rradius 35.3707
rwrist -199.196
rhand -34.1523 -8.18613
rfingers 7.12502
rthumb -7.32658 -38.0393
lclavicle -1.72943e-014 -1.05356e-014
lhumerus 38.0275 13.1488 72.5127
lradius 38.1118
lwrist 229.509
lhand -36.8843 -36.0598
lfingers 7.12502
lthumb -9.96303 -6.31559
rfemur -60.1344 -9.92736 18.9078
rtibia 24.6423
rfoot -4.71713 5.01751
rtoes -4.91087
lfemur -64.1464 11.5369 -31.9818
ltibia 28.6122
lfoot -4.9406 -7.34982
ltoes -18.1694
330
root -1.00971 18.0213 0.405912 171.751 86.001 131.768
lowerback 17.1033 -1.26793 -0.552766
upperback 5.87301 -1.47132 -1.53059
thorax -3.33624 -0.574288 -1.02063
lowerneck -18.5448 -0.178063 3.32902
upperneck 3.66931 -0.760626 -1.59389
head 4.02091 -0.379226 -1.09006
rclavicle 2.34566e-014 1.90833e-014
rhumerus 44.5523 -17.7524 -89.2316
rradius 35.4597
rwrist -199.746
rhand -34.0818 -8.25934
rfingers 7.12502
rthumb -7.25853 -38.1148
lclavicle 2.34566e-014 1.90833e-014
lhumerus 37.4606 13.0416 72.4417
lradius 38.0012
lwrist 229.638
lhand -37.0761 -36.095
lfingers 7.12502
lthumb -10.1481 -6.35971
rfemur -59.1996 -9.78254 18.6406
rtibia 24.3853
rfoot -4.86127 4.83378
rtoes -5.10023
lfemur -63.2531 11.5858 -31.7444
ltibia 28.423
lfoot -5.1162 -7.21061
ltoes -18.7707
331
root -0.977225 18.049 0.397695 171.622 86.0095 132.257
lowerback 16.6268 -1.28658 -0.563582
upperback 5.83576 -1.50119 -1.52858
thorax -3.12433 -0.593322 -1.01277
lowerneck -18.5485 -0.155178 3.53838
upperneck 3.59514 -0.765623 -1.71889
head 3.99695 -0.385781 -1.16255
rclavicle 1.2921e-014 -1.36167e-014
rhumerus 43.8956 -17.5463 -88.876
rradius 35.5862
rwrist -200.143
rhand -34.0355 -8.11956
rfingers 7.12502
rthumb -7.21385 -37.9766
lclavicle 1.2921e-014 -1.36167e-014
lhumerus 36.7002 12.9418 72.2087
lradius 38.2019
lwrist 229.946
lhand -37.2618 -36.325
lfingers 7.12502
lthumb -10.3272 -6.59861
rfemur -58.1958 -9.7232 18.4789
rtibia 24.1078
rfoot -4.94944 4.71484
rtoes -5.28738
lfemur -62.2689 11.6511 -31.4809
ltibia 28.1987
lfoot -5.24558 -7.09825
ltoes -19.1258
332
root -0.941718 18.0726 0.391261 171.506 85.999 132.743
lowerback 16.1563 -1.29593 -0.547865
upperback 5.75874 -1.51868 -1.54043
thorax -2.95786 -0.606986 -1.03679
lowerneck -18.5274 -0.139507 3.65353
upperneck 3.61241 -0.770279 -1.7244
head 3.9985 -0.386443 -1.18298
rclavicle 2.66371e-014 1.59028e-014
rhumerus 43.1786 -17.4545 -88.5904
rradius 35.7522
rwrist -200.378
rhand -34.0829 -8.14854
rfingers 7.12502
rthumb -7.25957 -38.004
lclavicle 2.66371e-014 1.59028e-014
lhumerus 35.547 12.6712 71.7551
lradius 38.722
lwrist 230.469
lhand -37.1818 -36.4787
lfingers 7.12502
lthumb -10.25 -6.74842
rfemur -57.1876 -9.61073 18.2583
rtibia 23.8298
rfoot -5.06522 4.48238
rtoes -5.3124
lfemur -61.3054 11.7237 -31.2397
ltibia 27.9681
lfoot -5.3605 -7.02638
ltoes -19.1365
333
root -0.907817 18.0893 0.386512 170.824 85.9373 132.579
lowerback 15.6583 -1.29821 -0.59921
upperback 5.61589 -1.54147 -1.53794
thorax -2.84319 -0.625598 -1.00699
lowerneck -18.5275 -0.130863 3.64991
upperneck 3.704 -0.764601 -1.66612
head 4.02743 -0.379979 -1.16412
rclavicle -4.17448e-015 -1.72943e-014
rhumerus 42.2851 -17.1859 -87.8833
rradius 35.984
rwrist -200.918
rhand -34.0762 -8.07339
rfingers 7.12502
rthumb -7.25308 -37.9291
lclavicle -4.17448e-015 -1.72943e-014
lhumerus 34.4512 12.3201 71.3068
lradius 39.1687
lwrist 230.944
lhand -36.9342 -36.6041
lfingers 7.12502
lthumb -10.0111 -6.86224
rfemur -56.2889 -9.48319 17.9405
rtibia 23.5555
rfoot -5.2015 4.23311
rtoes -5.2925
lfemur -60.4273 11.6693 -31.0038
ltibia 27.7286
lfoot -5.49079 -6.87305
ltoes -19.2195
334
root -0.872677 18.1081 0.382734 170.707 85.894 133.09
lowerback 15.2845 -1.29922 -0.643613
upperback 5.50766 -1.5571 -1.50651
thorax -2.75642 -0.639155 -0.950848
lowerneck -18.5872 -0.107832 3.67879
upperneck 3.82338 -0.744761 -1.65808
head 4.07417 -0.368949 -1.16529
rclavicle -6.16232e-015 -2.76311e-014
rhumerus 41.4168 -16.9183 -87.195
rradius 36.2467
rwrist -201.526
rhand -34.129 -7.83561
rfingers 7.12502
rthumb -7.30409 -37.6895
lclavicle -6.16232e-015 -2.76311e-014
lhumerus 33.6057 12.0478 71.0229
lradius 39.3771
lwrist 231.172
lhand -36.7452 -36.6638
lfingers 7.12502
lthumb -9.82883 -6.9132
rfemur -55.2796 -9.41862 17.7648
rtibia 23.2928
rfoot -5.3754 4.12434
rtoes -5.99978
lfemur -59.3871 11.5838 -30.6181
ltibia 27.4912
lfoot -5.64498 -6.62866
ltoes -19.2313
335
root -0.833604 18.1317 0.379399 171.241 85.8394 134.278
lowerback 14.8783 -1.27823 -0.615524
upperback 5.42226 -1.53181 -1.47294
thorax -2.62918 -0.631826 -0.941328
lowerneck -18.6676 -0.116234 3.68998
upperneck 3.96826 -0.76547 -1.63229
head 4.13108 -0.377095 -1.16176
rclavicle 2.36554e-014 2.64384e-014
rhumerus 40.5931 -16.8529 -86.7058
rradius 36.4597
rwrist -201.988
rhand -34.1804 -7.69364
rfingers 7.12502
rthumb -7.35366 -37.5458
lclavicle 2.36554e-014 2.64384e-014
lhumerus 32.8206 11.6413 70.7583
lradius 39.5889
lwrist 231.323
lhand -36.7328 -36.3835
lfingers 7.12502
lthumb -9.81687 -6.63238
rfemur -54.2211 -9.34926 17.6133
rtibia 23.0305
rfoot -5.57586 4.03176
rtoes -6.49652
lfemur -58.3228 11.5171 -30.2122
ltibia 27.2692
lfoot -5.7811 -6.41616
ltoes -19.0073
336
root -0.794363 18.1536 0.374812 171.627 85.8079 135.247
lowerback 14.3381 -1.26491 -0.584718
upperback 5.35188 -1.51538 -1.4447
thorax -2.41421 -0.629244 -0.939614
lowerneck -18.7575 -0.129191 3.63399
upperneck 4.13122 -0.783653 -1.5378
head 4.19573 -0.380672 -1.12594
rclavicle 1.72943e-014 1.95803e-014
rhumerus 39.8214 -16.7245 -86.253
rradius 36.6689
rwrist -202.423
rhand -34.1389 -7.71893
rfingers 7.12502
rthumb -7.31368 -37.5725
lclavicle 1.72943e-014 1.95803e-014
lhumerus 32.0785 11.2303 70.4218
lradius 39.7749
lwrist 231.65
lhand -36.6185 -36.4058
lfingers 7.12502
lthumb -9.70662 -6.6495
rfemur -53.2228 -9.29218 17.4855
rtibia 22.7334
rfoot -5.72639 3.96891
rtoes -6.94151
lfemur -57.3729 11.5027 -29.8786
ltibia 27.0658
lfoot -5.86988 -6.31521
ltoes -18.7489
337
root -0.754165 18.1716 0.372479 172.153 85.7939 136.396
lowerback 13.9077 -1.25353 -0.563958
upperback 5.25883 -1.50463 -1.41536
thorax -2.28076 -0.629244 -0.92824
lowerneck -18.8601 -0.145288 3.6054
upperneck 4.3588 -0.812274 -1.4655
head 4.2822 -0.390242 -1.10271
rclavicle 3.06128e-014 2.85256e-014
rhumerus 39.0078 -16.5437 -85.784
rradius 36.9252
rwrist -202.914
rhand -34.0828 -7.72727
rfingers 7.12502
rthumb -7.2595 -37.5827
lclavicle 3.06128e-014 2.85256e-014
lhumerus 31.2182 10.7494 69.9816
lradius 40.0708
lwrist 232.186
lhand -36.6981 -36.193
lfingers 7.12502
lthumb -9.78334 -6.44023
rfemur -52.1803 -9.23992 17.4016
rtibia 22.4398
rfoot -5.78666 3.88347
rtoes -6.76827
lfemur -56.3875 11.5516 -29.5549
ltibia 26.8602
lfoot -5.99254 -6.28951
ltoes -18.6833
